<svg xmlns="http://www.w3.org/2000/svg" viewBox="0 0 176.89 205.92"><title>Element 1</title><g id="Ebene_2" data-name="Ebene 2"><g id="Layer_1" data-name="Layer 1"><path d="M176.88,61.86A64.92,64.92,0,0,0,170,32.21a54.57,54.57,0,0,0-20-21.48,63.23,63.23,0,0,0-21.42-8.2A131.2,131.2,0,0,0,110.16.4c-3.36-.24-7.25-.4-11.9-.4H0V8.21H6.05c5.45,0,9.84,1.48,13.17,4.4s5,7.52,5,13.77V179.54c0,6-1.67,10.59-5,13.62s-7.72,4.54-13.17,4.54H0v8.21H113.35v-8.21H107.3q-7.88,0-13-4.09t-5.15-14.07V76.84c-.82-1.2-1.72-1.91-3.94-1.91-3.85,0-3.05,4-8.73,4h0c-6.13,0-5.67-4-9.19-4-4.58,0-3.62,4-8.2,4s-3.5-4-7.23-4c-4.09.07-3.08,3.67-6.24,3.9-.49,0-1-1-1-1s0-.34,0-2.28c0-3.2,2.14-8.52,3.73-11,7.87-12.48,23.18-24,41-25.76C89.92,36.93,92,31,93.21,31h0c1.21,0,3.3,6,3.92,7.81,17.8,1.77,33.11,13.28,41,25.76,1.59,2.52,3.73,7.84,3.73,11,0,1.94,0,2.17,0,2.28s-.49.93-1,1c-3.16-.23-2.15-3.83-6.24-3.9-3.73,0-2.64,4-7.23,4s-3.62-4-8.21-4c-3.52,0-3.05,4-9.19,4h0c-5.67,0-4.88-4-8.73-4-2.22,0-3.12.71-3.94,1.91v45.45c2.75,0,6.22,0,6.61,0H104q32.72-.58,52.43-16.27c13.63-10.87,20.45-25.64,20.45-44.14C176.89,61.79,176.88,62.32,176.88,61.86Z"/></g></g></svg>